<?xml version="1.0" encoding="UTF-8" standalone="no"?>
<!-- Created with Inkscape (http://www.inkscape.org/) -->

<svg
   xmlns:dc="http://purl.org/dc/elements/1.1/"
   xmlns:cc="http://creativecommons.org/ns#"
   xmlns:rdf="http://www.w3.org/1999/02/22-rdf-syntax-ns#"
   xmlns:svg="http://www.w3.org/2000/svg"
   xmlns="http://www.w3.org/2000/svg"
   xmlns:sodipodi="http://sodipodi.sourceforge.net/DTD/sodipodi-0.dtd"
   xmlns:inkscape="http://www.inkscape.org/namespaces/inkscape"
   width="260"
   height="48"
   id="svg2"
   version="1.1"
   inkscape:version="0.48.5 r10040"
   sodipodi:docname="numbas-logo.svg">
  <defs
     id="defs4" />
  <sodipodi:namedview
     id="base"
     pagecolor="#ffffff"
     bordercolor="#666666"
     borderopacity="1.0"
     inkscape:pageopacity="0.0"
     inkscape:pageshadow="2"
     inkscape:zoom="1.16"
     inkscape:cx="218.53448"
     inkscape:cy="-76.151671"
     inkscape:document-units="px"
     inkscape:current-layer="layer1"
     showgrid="false"
     inkscape:window-width="1920"
     inkscape:window-height="1003"
     inkscape:window-x="-9"
     inkscape:window-y="-9"
     inkscape:window-maximized="1" />
  <metadata
     id="metadata7">
    <rdf:RDF>
      <cc:Work
         rdf:about="">
        <dc:format>image/svg+xml</dc:format>
        <dc:type
           rdf:resource="http://purl.org/dc/dcmitype/StillImage" />
        <dc:title></dc:title>
      </cc:Work>
    </rdf:RDF>
  </metadata>
  <g
     inkscape:label="Layer 1"
     inkscape:groupmode="layer"
     id="layer1"
     transform="translate(0,-1004.3622)">
    <g
       style="font-size:40px;font-style:normal;font-weight:normal;line-height:125%;letter-spacing:0px;word-spacing:0px;fill:#34444f;fill-opacity:1;stroke:none;font-family:Sans"
       id="text2985"
       transform="matrix(0.89845863,0,0,0.89845863,0,106.85831)">
      <path
         d="m 0,1051.4982 7.1279082,0 0,-32.9756 c -0.021014,-1.569 -0.1050131,-3.1649 -0.2519978,-4.7879 -0.1470123,-1.623 -0.2310108,-2.499 -0.2519957,-2.628 l 0.1439982,0 c 0.059986,0.1335 0.5339799,1.0185 1.4219827,2.655 0.8879726,1.6365 1.8299594,3.2234 2.8259624,4.7609 l 22.679708,32.9756 6.98391,0 0,-50.8314 -7.127908,0 0,33.0476 c 0.02096,1.5345 0.104958,3.1095 0.251996,4.7249 0.146956,1.6155 0.230955,2.4885 0.251998,2.619 l -0.143999,0 c -0.06004,-0.135 -0.534032,-1.017 -1.421981,-2.646 -0.888028,-1.6289 -1.830015,-3.1949 -2.825964,-4.6979 L 7.0559092,1000.6668 0,1000.6668 z"
         style="font-size:72px;fill:#34444f;fill-opacity:1;font-family:Museo Sans 500;-inkscape-font-specification:Museo Sans 500"
         id="path3758"
         inkscape:connector-curvature="0" />
      <path
         d="m 53.842509,1033.4984 c 0.09149,5.7314 1.942467,10.2884 5.552929,13.6708 3.610439,3.3825 8.431372,5.1135 14.462814,5.193 6.03139,-0.08 10.852323,-1.8105 14.462813,-5.193 3.610408,-3.3824 5.461383,-7.9394 5.552929,-13.6708 l 0,-32.8316 -7.127908,0 0,32.6876 c -0.04954,3.984 -1.228524,7.0499 -3.536956,9.1979 -2.308504,2.148 -5.44946,3.2339 -9.422878,3.2579 -3.935971,-0.027 -7.043928,-1.1069 -9.323881,-3.2399 -2.279985,-2.133 -3.443969,-5.1569 -3.491954,-9.0719 l 0,-32.8316 -7.127908,0 z"
         style="font-size:72px;fill:#34444f;fill-opacity:1;font-family:Museo Sans 500;-inkscape-font-specification:Museo Sans 500"
         id="path3760"
         inkscape:connector-curvature="0" />
      <path
         d="m 105.43165,1051.4982 7.1279,0 2.44797,-32.0396 c 0.10049,-1.6725 0.15149,-3.3314 0.153,-4.977 10e-4,-1.6454 -0.002,-2.5304 -0.009,-2.6549 l 0.144,0 c 0.042,0.147 0.35398,1.077 0.93599,2.7899 0.58197,1.7131 1.18196,3.327 1.79997,4.842 l 10.07987,22.8957 6.33592,0 10.15187,-22.8957 c 0.64945,-1.5405 1.25844,-3.1394 1.82698,-4.797 0.56844,-1.6574 0.87144,-2.5544 0.90899,-2.6909 l 0.14399,0 c -0.0105,0.1185 -0.0255,0.9795 -0.045,2.5829 -0.0195,1.6036 0.0195,3.2385 0.117,4.905 l 2.51997,32.0396 7.05591,0 -4.10395,-50.8314 -7.4879,0 -11.66385,27.5037 c -0.60903,1.5135 -1.17302,3.0045 -1.69198,4.4729 -0.51903,1.4685 -0.79502,2.2575 -0.82799,2.367 l -0.144,0 c -0.033,-0.1095 -0.30902,-0.8985 -0.82799,-2.367 -0.51902,-1.4684 -1.08301,-2.9594 -1.69197,-4.4729 l -11.66385,-27.5037 -7.48791,0 z"
         style="font-size:72px;fill:#34444f;fill-opacity:1;font-family:Museo Sans 500;-inkscape-font-specification:Museo Sans 500"
         id="path3762"
         inkscape:connector-curvature="0" />
      <path
         d="m 169.3125,1051.4982 18.21577,0 c 4.58691,0 8.42685,-1.2195 11.51985,-3.645 3.09292,-2.4254 4.7009,-6.0344 4.82394,-10.8268 -0.0151,-2.9025 -0.74104,-5.4675 -2.17798,-7.6949 -1.43702,-2.2275 -3.49499,-3.7665 -6.17392,-4.617 l 0,-0.144 c 1.96494,-1.0274 3.50692,-2.4824 4.62594,-4.3649 1.11895,-1.8825 1.68894,-4.0754 1.70998,-6.5789 -0.0795,-4.1309 -1.46852,-7.3169 -4.16694,-9.5579 -2.6985,-2.2409 -6.22945,-3.3749 -10.59287,-3.402 l -17.78377,0 z m 7.12791,-29.4477 0,-15.1918 10.51186,0 c 2.45994,0.033 4.34392,0.7231 5.65193,2.07 1.30795,1.347 1.96794,3.153 1.97997,5.4179 -0.024,2.2741 -0.69602,4.116 -2.01597,5.526 -1.32001,1.41 -3.14399,2.136 -5.47193,2.1779 z m 0,23.2557 0,-17.3517 11.37585,0 c 2.69694,0.039 4.82691,0.843 6.38992,2.4119 1.56295,1.569 2.36094,3.669 2.39397,6.3 -0.021,2.6279 -0.78902,4.7159 -2.30397,6.2639 -1.51501,1.548 -3.65098,2.34 -6.40792,2.3759 z"
         style="font-size:72px;fill:#34444f;fill-opacity:1;font-family:Museo Sans 500;-inkscape-font-specification:Museo Sans 500"
         id="path3764"
         inkscape:connector-curvature="0" />
      <path
         d="m 245.32723,1051.4982 7.41591,0 -18.28777,-50.8314 -7.4879,0 -18.28776,50.8314 7.3439,0 5.03994,-14.6158 19.15175,0 z m -14.54381,-43.8475 c 0.027,0.1381 0.24298,1.0141 0.64799,2.628 0.40497,1.614 0.83697,3.138 1.29599,4.5719 l 5.61592,16.1278 -15.4078,0 5.68793,-16.1278 c 0.46197,-1.4339 0.90597,-2.9579 1.33198,-4.5719 0.42597,-1.6139 0.65397,-2.4899 0.68399,-2.628 z"
         style="font-size:72px;fill:#34444f;fill-opacity:1;font-family:Museo Sans 500;-inkscape-font-specification:Museo Sans 500"
         id="path3766"
         inkscape:connector-curvature="0" />
      <path
         d="m 256.40893,1045.6662 c 0.008,0.083 0.66398,0.6614 1.96797,1.736 1.30397,1.0747 3.20795,2.1493 5.71192,3.224 2.50396,1.0746 5.55992,1.6533 9.16789,1.736 5.08191,-0.1065 9.02985,-1.5135 11.84384,-4.221 2.81393,-2.7074 4.24191,-6.0764 4.28395,-10.1069 -0.12828,-4.037 -1.41077,-7.1228 -3.84745,-9.2575 -2.43675,-2.1346 -5.25821,-3.8277 -8.46439,-5.0793 -3.20623,-1.2515 -6.02769,-2.5711 -8.46439,-3.9588 -2.43674,-1.3876 -3.71922,-3.353 -3.84745,-5.896 0.0465,-2.073 0.90747,-3.813 2.58296,-5.22 1.67547,-1.4069 3.88644,-2.1389 6.63292,-2.196 3.29993,0.1831 5.96989,0.9151 8.00989,2.196 2.03995,1.281 3.08993,2.013 3.14997,2.196 l 3.23995,-5.9039 c -0.0105,-0.213 -1.23151,-1.065 -3.66295,-2.556 -2.4315,-1.4909 -6.01045,-2.3429 -10.73686,-2.55597 -4.87345,0.096 -8.8064,1.47007 -11.79885,4.12197 -2.99247,2.652 -4.53145,6.0059 -4.61694,10.0619 0.12824,3.8242 1.41073,6.7686 3.84745,8.8333 2.43671,2.0648 5.25817,3.7403 8.46439,5.0265 3.20619,1.2862 6.02765,2.6737 8.46439,4.1624 2.43669,1.4888 3.71918,3.5692 3.84745,6.2414 -0.069,2.4225 -0.93901,4.2735 -2.60996,5.553 -1.67101,1.2795 -3.72898,1.9244 -6.17392,1.9349 -3.84747,-0.2279 -6.95243,-1.1399 -9.31489,-2.7359 -2.36247,-1.596 -3.57746,-2.508 -3.64495,-2.736 z"
         style="font-size:72px;fill:#34444f;fill-opacity:1;font-family:Museo Sans 500;-inkscape-font-specification:Museo Sans 500"
         id="path3768"
         inkscape:connector-curvature="0" />
    </g>
  </g>
</svg>
